<svg width="15" height="4" viewBox="0 0 15 4" fill="none" xmlns="http://www.w3.org/2000/svg">
<path d="M7.97585 2.75C8.39173 2.75 8.72886 2.41421 8.72886 2C8.72886 1.58579 8.39173 1.25 7.97585 1.25C7.55997 1.25 7.22284 1.58579 7.22284 2C7.22284 2.41421 7.55997 2.75 7.97585 2.75Z" stroke="black" stroke-width="2" stroke-linecap="round" stroke-linejoin="round"/>
<path d="M13.247 2.75C13.6628 2.75 14 2.41421 14 2C14 1.58579 13.6628 1.25 13.247 1.25C12.8311 1.25 12.494 1.58579 12.494 2C12.494 2.41421 12.8311 2.75 13.247 2.75Z" stroke="black" stroke-width="2" stroke-linecap="round" stroke-linejoin="round"/>
<path d="M2.70479 2.75C3.12067 2.75 3.45781 2.41421 3.45781 2C3.45781 1.58579 3.12067 1.25 2.70479 1.25C2.28892 1.25 1.95178 1.58579 1.95178 2C1.95178 2.41421 2.28892 2.75 2.70479 2.75Z" stroke="black" stroke-width="2" stroke-linecap="round" stroke-linejoin="round"/>
</svg>
