<svg width="33" height="18" viewBox="0 0 33 18" fill="none" xmlns="http://www.w3.org/2000/svg">
<rect width="33" height="18" rx="8" fill="url(#paint0_angular_108_132)"/>
<path fill-rule="evenodd" clip-rule="evenodd" d="M13.4268 9.11111C13.245 9.11111 13.0976 9.26035 13.0976 9.44444V12.5556C13.0976 12.7397 13.245 12.8889 13.4268 12.8889H19.5732C19.755 12.8889 19.9024 12.7397 19.9024 12.5556V9.44444C19.9024 9.26035 19.755 9.11111 19.5732 9.11111H13.4268ZM12 9.44444C12 8.6467 12.6388 8 13.4268 8H19.5732C20.3612 8 21 8.6467 21 9.44444V12.5556C21 13.3533 20.3612 14 19.5732 14H13.4268C12.6388 14 12 13.3533 12 12.5556V9.44444Z" fill="white"/>
<path fill-rule="evenodd" clip-rule="evenodd" d="M16.5 5.08696C16.1022 5.08696 15.7206 5.25873 15.4393 5.5645C15.158 5.87027 15 6.28497 15 6.71739V8.45652C15 8.75668 14.7761 9 14.5 9C14.2239 9 14 8.75668 14 8.45652V6.71739C14 5.99669 14.2634 5.30552 14.7322 4.79591C15.2011 4.2863 15.837 4 16.5 4C17.163 4 17.7989 4.2863 18.2678 4.79591C18.7366 5.30552 19 5.99669 19 6.71739V8.45652C19 8.75668 18.7761 9 18.5 9C18.2239 9 18 8.75668 18 8.45652V6.71739C18 6.28497 17.842 5.87027 17.5607 5.5645C17.2794 5.25873 16.8978 5.08696 16.5 5.08696Z" fill="white"/>
<defs>
<radialGradient id="paint0_angular_108_132" cx="0" cy="0" r="1" gradientUnits="userSpaceOnUse" gradientTransform="translate(16.5 9) rotate(75.0417) scale(8.93837 15.6201)">
<stop offset="0.0645391" stop-color="#F48B11"/>
<stop offset="0.189864" stop-color="#9383F9"/>
<stop offset="0.274605" stop-color="#004873"/>
<stop offset="0.36803" stop-color="#020304"/>
<stop offset="0.659823"/>
<stop offset="0.795724" stop-color="#670889"/>
<stop offset="0.92199" stop-color="#CC2C69"/>
<stop offset="0.926993" stop-color="#CE3165"/>
</radialGradient>
</defs>
</svg>
